# xmcd
#
# Track frame offsets:
# 150
# 16207
# 46155
# 68320
# 87367
# 114312
# 132580
# 142152
# 160100
# 177695
# 192435
# 210815
# 222657
# 241790
# 266030
#
# Disc length: 3695 seconds
#
# Revision: 1
# Processed by: cddbd v1.4PL0 Copyright (c) Steve Scherf et al.
# Submitted via: inCDius 2.0b9
#
DISCID=d60e6d0f
DTITLE=Stan Webb - Black Night
DYEAR=1900
DGENRE=
TTITLE0=The Management
TTITLE1=So Far So Back
TTITLE2=Don´t Want To See You Anymore
TTITLE3=Man Of The Road
TTITLE4=Black Night
TTITLE5=High Cost Of Living
TTITLE6=Quick Step
TTITLE7=Dirty Weekend
TTITLE8=Mine All The Time
TTITLE9=Meeting On A Hill
TTITLE10=Sweet Delilah
TTITLE11=The Singer
TTITLE12=Prisoner
TTITLE13=Drinking With Redstone
TTITLE14=Broken Glass
EXTD=(p)(c) Indigo 1997
EXTT0=
EXTT1=
EXTT2=
EXTT3=
EXTT4=
EXTT5=
EXTT6=
EXTT7=
EXTT8=
EXTT9=
EXTT10=
EXTT11=
EXTT12=
EXTT13=
EXTT14=
PLAYORDER=
